<svg data-v-fde0c5aa="" xmlns="http://www.w3.org/2000/svg" viewBox="0 0 300 300" class="font"><!----><defs data-v-fde0c5aa=""><linearGradient data-v-fde0c5aa="" gradientTransform="rotate(25)" id="a21cc2f2-b3cc-4280-a925-81bf40ef5d78" x1="0%" y1="0%" x2="100%" y2="0%"><stop data-v-fde0c5aa="" offset="0%" stop-color="#913C00" stop-opacity="1"></stop><stop data-v-fde0c5aa="" offset="100%" stop-color="#D9AD76" stop-opacity="1"></stop></linearGradient></defs><rect data-v-fde0c5aa="" fill="url(#a21cc2f2-b3cc-4280-a925-81bf40ef5d78)" x="0" y="0" width="300px" height="300px" class="logo-background-square"></rect><defs data-v-fde0c5aa=""><!----></defs><g data-v-fde0c5aa="" id="73efd0b6-c0a2-4a69-b6e1-f5e9023fcedb" fill="#ffffff" transform="matrix(1.474530816078186,0,0,1.474530816078186,38.820375293414656,137.50335144300388)"><path d="M5.07 1.27L5.07 1.27Q6.27 1.27 7.10 1.76L7.10 1.76L7.10 1.76Q7.92 2.25 8.50 3.16L8.50 3.16L8.50 3.16Q8.67 3.43 8.67 3.67L8.67 3.67L8.67 3.67Q8.67 3.98 8.39 4.17L8.39 4.17L8.39 4.17Q8.23 4.27 8.02 4.27L8.02 4.27L8.02 4.27Q7.81 4.27 7.63 4.16L7.63 4.16L7.63 4.16Q7.45 4.06 7.35 3.88L7.35 3.88L7.35 3.88Q6.97 3.25 6.41 2.92L6.41 2.92L6.41 2.92Q5.84 2.59 4.97 2.59L4.97 2.59L4.97 2.59Q3.91 2.59 3.25 3.00L3.25 3.00L3.25 3.00Q2.59 3.42 2.59 4.20L2.59 4.20L2.59 4.20Q2.59 4.93 3.18 5.42L3.18 5.42L3.18 5.42Q3.77 5.91 5.28 6.06L5.28 6.06L5.28 6.06Q6.96 6.23 7.88 7.08L7.88 7.08L7.88 7.08Q8.81 7.92 8.81 9.31L8.81 9.31L8.81 9.31Q8.81 10.32 8.26 11.04L8.26 11.04L8.26 11.04Q7.71 11.76 6.81 12.12L6.81 12.12L6.81 12.12Q5.91 12.47 4.87 12.47L4.87 12.47L4.87 12.47Q3.51 12.47 2.40 11.86L2.40 11.86L2.40 11.86Q1.29 11.24 0.87 10.25L0.87 10.25L0.87 10.25Q0.80 10.08 0.80 9.97L0.80 9.97L0.80 9.97Q0.80 9.76 0.95 9.60L0.95 9.60L0.95 9.60Q1.11 9.44 1.37 9.38L1.37 9.38L1.37 9.38Q1.41 9.37 1.51 9.37L1.51 9.37L1.51 9.37Q1.74 9.37 1.94 9.50L1.94 9.50L1.94 9.50Q2.14 9.63 2.24 9.86L2.24 9.86L2.24 9.86Q2.49 10.40 3.23 10.78L3.23 10.78L3.23 10.78Q3.98 11.16 4.87 11.16L4.87 11.16L4.87 11.16Q5.92 11.16 6.65 10.67L6.65 10.67L6.65 10.67Q7.38 10.19 7.38 9.35L7.38 9.35L7.38 9.35Q7.38 8.55 6.76 7.99L6.76 7.99L6.76 7.99Q6.15 7.42 4.89 7.29L4.89 7.29L4.89 7.29Q3.15 7.13 2.16 6.28L2.16 6.28L2.16 6.28Q1.16 5.43 1.16 4.16L1.16 4.16L1.16 4.16Q1.16 3.26 1.67 2.61L1.67 2.61L1.67 2.61Q2.18 1.96 3.07 1.62L3.07 1.62L3.07 1.62Q3.96 1.27 5.07 1.27L5.07 1.27ZM14.15 10.93L14.15 10.93Q14.41 10.93 14.58 11.13L14.58 11.13L14.58 11.13Q14.76 11.33 14.76 11.63L14.76 11.63L14.76 11.63Q14.76 11.94 14.52 12.14L14.52 12.14L14.52 12.14Q14.29 12.33 13.93 12.33L13.93 12.33L13.68 12.33L13.68 12.33Q12.99 12.33 12.43 11.98L12.43 11.98L12.43 11.98Q11.86 11.62 11.54 11.00L11.54 11.00L11.54 11.00Q11.21 10.39 11.21 9.62L11.21 9.62L11.21 6.16L10.57 6.16L10.57 6.16Q10.28 6.16 10.09 5.99L10.09 5.99L10.09 5.99Q9.91 5.82 9.91 5.57L9.91 5.57L9.91 5.57Q9.91 5.29 10.09 5.12L10.09 5.12L10.09 5.12Q10.28 4.96 10.57 4.96L10.57 4.96L11.21 4.96L11.21 2.94L11.21 2.94Q11.21 2.63 11.41 2.44L11.41 2.44L11.41 2.44Q11.61 2.24 11.91 2.24L11.91 2.24L11.91 2.24Q12.22 2.24 12.42 2.44L12.42 2.44L12.42 2.44Q12.61 2.63 12.61 2.94L12.61 2.94L12.61 4.96L13.80 4.96L13.80 4.96Q14.10 4.96 14.28 5.12L14.28 5.12L14.28 5.12Q14.46 5.29 14.46 5.57L14.46 5.57L14.46 5.57Q14.46 5.82 14.28 5.99L14.28 5.99L14.28 5.99Q14.10 6.16 13.80 6.16L13.80 6.16L12.61 6.16L12.61 9.62L12.61 9.62Q12.61 10.18 12.92 10.56L12.92 10.56L12.92 10.56Q13.23 10.93 13.68 10.93L13.68 10.93L14.15 10.93ZM19.98 4.62L19.98 4.62Q21.06 4.62 21.93 5.13L21.93 5.13L21.93 5.13Q22.81 5.64 23.32 6.53L23.32 6.53L23.32 6.53Q23.83 7.42 23.83 8.51L23.83 8.51L23.83 11.63L23.83 11.63Q23.83 11.94 23.63 12.14L23.63 12.14L23.63 12.14Q23.42 12.35 23.11 12.35L23.11 12.35L23.11 12.35Q22.81 12.35 22.60 12.14L22.60 12.14L22.60 12.14Q22.40 11.94 22.40 11.63L22.40 11.63L22.40 11.12L22.40 11.12Q21.91 11.72 21.21 12.05L21.21 12.05L21.21 12.05Q20.51 12.39 19.70 12.39L19.70 12.39L19.70 12.39Q18.69 12.39 17.87 11.89L17.87 11.89L17.87 11.89Q17.05 11.38 16.58 10.49L16.58 10.49L16.58 10.49Q16.11 9.60 16.11 8.51L16.11 8.51L16.11 8.51Q16.11 7.42 16.62 6.53L16.62 6.53L16.62 6.53Q17.12 5.64 18.01 5.13L18.01 5.13L18.01 5.13Q18.90 4.62 19.98 4.62L19.98 4.62ZM19.98 11.13L19.98 11.13Q20.68 11.13 21.24 10.79L21.24 10.79L21.24 10.79Q21.81 10.44 22.13 9.85L22.13 9.85L22.13 9.85Q22.46 9.25 22.46 8.51L22.46 8.51L22.46 8.51Q22.46 7.77 22.13 7.17L22.13 7.17L22.13 7.17Q21.81 6.57 21.24 6.22L21.24 6.22L21.24 6.22Q20.68 5.88 19.98 5.88L19.98 5.88L19.98 5.88Q19.28 5.88 18.71 6.22L18.71 6.22L18.71 6.22Q18.14 6.57 17.81 7.17L17.81 7.17L17.81 7.17Q17.49 7.77 17.49 8.51L17.49 8.51L17.49 8.51Q17.49 9.25 17.81 9.85L17.81 9.85L17.81 9.85Q18.14 10.44 18.71 10.79L18.71 10.79L18.71 10.79Q19.28 11.13 19.98 11.13L19.98 11.13ZM31.81 4.75L31.81 4.75Q32.24 4.91 32.24 5.29L32.24 5.29L32.24 5.29Q32.24 5.43 32.16 5.63L32.16 5.63L27.87 15.26L27.87 15.26Q27.71 15.69 27.33 15.69L27.33 15.69L27.33 15.69Q27.19 15.69 26.99 15.61L26.99 15.61L26.99 15.61Q26.57 15.43 26.57 15.06L26.57 15.06L26.57 15.06Q26.57 14.90 26.66 14.73L26.66 14.73L28.06 11.58L24.91 5.60L24.91 5.60Q24.84 5.47 24.84 5.31L24.84 5.31L24.84 5.31Q24.84 5.12 24.95 4.97L24.95 4.97L24.95 4.97Q25.06 4.82 25.24 4.73L25.24 4.73L25.24 4.73Q25.37 4.68 25.52 4.68L25.52 4.68L25.52 4.68Q25.91 4.68 26.11 5.07L26.11 5.07L28.67 10.16L30.93 5.08L30.93 5.08Q31.11 4.68 31.47 4.68L31.47 4.68L31.47 4.68Q31.65 4.68 31.81 4.75L31.81 4.75ZM40.61 1.40L40.61 1.40Q40.91 1.40 41.10 1.59L41.10 1.59L41.10 1.59Q41.29 1.78 41.29 2.07L41.29 2.07L41.29 2.07Q41.29 2.37 41.10 2.55L41.10 2.55L41.10 2.55Q40.91 2.74 40.61 2.74L40.61 2.74L37.60 2.74L37.60 11.61L37.60 11.61Q37.60 11.91 37.39 12.12L37.39 12.12L37.39 12.12Q37.18 12.33 36.88 12.33L36.88 12.33L36.88 12.33Q36.57 12.33 36.36 12.12L36.36 12.12L36.36 12.12Q36.15 11.91 36.15 11.61L36.15 11.61L36.15 2.74L33.12 2.74L33.12 2.74Q32.83 2.74 32.64 2.55L32.64 2.55L32.64 2.55Q32.45 2.37 32.45 2.07L32.45 2.07L32.45 2.07Q32.45 1.78 32.64 1.59L32.64 1.59L32.64 1.59Q32.83 1.40 33.12 1.40L33.12 1.40L40.61 1.40ZM46.51 4.59L46.51 4.59Q47.25 4.59 47.67 4.82L47.67 4.82L47.67 4.82Q48.09 5.04 48.09 5.38L48.09 5.38L48.09 5.38Q48.09 5.47 48.08 5.52L48.08 5.52L48.08 5.52Q47.95 5.96 47.52 5.96L47.52 5.96L47.52 5.96Q47.45 5.96 47.31 5.94L47.31 5.94L47.31 5.94Q46.75 5.84 46.40 5.84L46.40 5.84L46.40 5.84Q45.39 5.84 44.77 6.30L44.77 6.30L44.77 6.30Q44.16 6.76 44.16 7.55L44.16 7.55L44.16 11.63L44.16 11.63Q44.16 11.97 43.98 12.15L43.98 12.15L43.98 12.15Q43.81 12.33 43.46 12.33L43.46 12.33L43.46 12.33Q43.12 12.33 42.94 12.16L42.94 12.16L42.94 12.16Q42.76 11.98 42.76 11.63L42.76 11.63L42.76 5.38L42.76 5.38Q42.76 5.04 42.94 4.86L42.94 4.86L42.94 4.86Q43.12 4.68 43.46 4.68L43.46 4.68L43.46 4.68Q44.16 4.68 44.16 5.38L44.16 5.38L44.16 5.64L44.16 5.64Q44.58 5.15 45.19 4.87L45.19 4.87L45.19 4.87Q45.81 4.59 46.51 4.59L46.51 4.59ZM53.03 4.62L53.03 4.62Q54.11 4.62 54.98 5.13L54.98 5.13L54.98 5.13Q55.86 5.64 56.37 6.53L56.37 6.53L56.37 6.53Q56.88 7.42 56.88 8.51L56.88 8.51L56.88 11.63L56.88 11.63Q56.88 11.94 56.68 12.14L56.68 12.14L56.68 12.14Q56.48 12.35 56.17 12.35L56.17 12.35L56.17 12.35Q55.86 12.35 55.66 12.14L55.66 12.14L55.66 12.14Q55.45 11.94 55.45 11.63L55.45 11.63L55.45 11.12L55.45 11.12Q54.96 11.72 54.26 12.05L54.26 12.05L54.26 12.05Q53.56 12.39 52.75 12.39L52.75 12.39L52.75 12.39Q51.74 12.39 50.92 11.89L50.92 11.89L50.92 11.89Q50.11 11.38 49.64 10.49L49.64 10.49L49.64 10.49Q49.17 9.60 49.17 8.51L49.17 8.51L49.17 8.51Q49.17 7.42 49.67 6.53L49.67 6.53L49.67 6.53Q50.18 5.64 51.06 5.13L51.06 5.13L51.06 5.13Q51.95 4.62 53.03 4.62L53.03 4.62ZM53.03 11.13L53.03 11.13Q53.73 11.13 54.30 10.79L54.30 10.79L54.30 10.79Q54.87 10.44 55.19 9.85L55.19 9.85L55.19 9.85Q55.51 9.25 55.51 8.51L55.51 8.51L55.51 8.51Q55.51 7.77 55.19 7.17L55.19 7.17L55.19 7.17Q54.87 6.57 54.30 6.22L54.30 6.22L54.30 6.22Q53.73 5.88 53.03 5.88L53.03 5.88L53.03 5.88Q52.33 5.88 51.77 6.22L51.77 6.22L51.77 6.22Q51.20 6.57 50.87 7.17L50.87 7.17L50.87 7.17Q50.54 7.77 50.54 8.51L50.54 8.51L50.54 8.51Q50.54 9.25 50.87 9.85L50.87 9.85L50.87 9.85Q51.20 10.44 51.77 10.79L51.77 10.79L51.77 10.79Q52.33 11.13 53.03 11.13L53.03 11.13ZM62.41 4.62L62.41 4.62Q64.06 4.62 65.16 5.88L65.16 5.88L65.16 5.88Q65.30 6.03 65.30 6.24L65.30 6.24L65.30 6.24Q65.30 6.55 64.99 6.76L64.99 6.76L64.99 6.76Q64.85 6.86 64.67 6.86L64.67 6.86L64.67 6.86Q64.34 6.86 64.12 6.61L64.12 6.61L64.12 6.61Q63.77 6.23 63.36 6.05L63.36 6.05L63.36 6.05Q62.94 5.88 62.41 5.88L62.41 5.88L62.41 5.88Q61.33 5.88 60.66 6.60L60.66 6.60L60.66 6.60Q59.99 7.32 59.99 8.51L59.99 8.51L59.99 8.51Q59.99 9.27 60.30 9.86L60.30 9.86L60.30 9.86Q60.62 10.46 61.19 10.79L61.19 10.79L61.19 10.79Q61.75 11.13 62.48 11.13L62.48 11.13L62.48 11.13Q63.43 11.13 64.02 10.64L64.02 10.64L64.02 10.64Q64.29 10.44 64.54 10.44L64.54 10.44L64.54 10.44Q64.74 10.44 64.90 10.57L64.90 10.57L64.90 10.57Q65.17 10.79 65.17 11.07L65.17 11.07L65.17 11.07Q65.17 11.28 65.00 11.45L65.00 11.45L65.00 11.45Q63.99 12.39 62.48 12.39L62.48 12.39L62.48 12.39Q61.38 12.39 60.49 11.89L60.49 11.89L60.49 11.89Q59.61 11.38 59.12 10.49L59.12 10.49L59.12 10.49Q58.62 9.60 58.62 8.51L58.62 8.51L58.62 8.51Q58.62 7.39 59.10 6.50L59.10 6.50L59.10 6.50Q59.58 5.61 60.45 5.12L60.45 5.12L60.45 5.12Q61.32 4.62 62.41 4.62L62.41 4.62ZM73.21 11.33L73.21 11.33Q73.36 11.49 73.36 11.75L73.36 11.75L73.36 11.75Q73.36 12.05 73.11 12.26L73.11 12.26L73.11 12.26Q72.90 12.43 72.66 12.43L72.66 12.43L72.66 12.43Q72.35 12.43 72.16 12.18L72.16 12.18L69.50 8.89L68.80 9.51L68.80 11.65L68.80 11.65Q68.80 11.96 68.61 12.14L68.61 12.14L68.61 12.14Q68.42 12.33 68.11 12.33L68.11 12.33L68.11 12.33Q67.80 12.33 67.61 12.14L67.61 12.14L67.61 12.14Q67.42 11.96 67.42 11.65L67.42 11.65L67.42 2.09L67.42 2.09Q67.42 1.78 67.61 1.59L67.61 1.59L67.61 1.59Q67.80 1.40 68.11 1.40L68.11 1.40L68.11 1.40Q68.42 1.40 68.61 1.59L68.61 1.59L68.61 1.59Q68.80 1.78 68.80 2.09L68.80 2.09L68.80 7.78L72.20 4.75L72.20 4.75Q72.38 4.56 72.63 4.56L72.63 4.56L72.63 4.56Q72.93 4.56 73.11 4.79L73.11 4.79L73.11 4.79Q73.29 4.97 73.29 5.22L73.29 5.22L73.29 5.22Q73.29 5.52 73.07 5.70L73.07 5.70L70.49 7.99L73.21 11.33ZM87.47 6.66L87.47 6.66Q87.78 6.66 87.98 6.87L87.98 6.87L87.98 6.87Q88.19 7.07 88.19 7.39L88.19 7.39L88.19 10.74L88.19 10.74Q88.19 11.07 87.96 11.26L87.96 11.26L87.96 11.26Q86.49 12.47 84.53 12.47L84.53 12.47L84.53 12.47Q83.03 12.47 81.80 11.73L81.80 11.73L81.80 11.73Q80.56 10.99 79.84 9.70L79.84 9.70L79.84 9.70Q79.13 8.41 79.13 6.86L79.13 6.86L79.13 6.86Q79.13 5.32 79.84 4.04L79.84 4.04L79.84 4.04Q80.56 2.76 81.80 2.01L81.80 2.01L81.80 2.01Q83.03 1.26 84.53 1.26L84.53 1.26L84.53 1.26Q85.60 1.26 86.37 1.54L86.37 1.54L86.37 1.54Q87.15 1.82 87.95 2.46L87.95 2.46L87.95 2.46Q88.12 2.59 88.17 2.72L88.17 2.72L88.17 2.72Q88.23 2.86 88.23 3.04L88.23 3.04L88.23 3.04Q88.23 3.32 88.03 3.50L88.03 3.50L88.03 3.50Q87.82 3.68 87.54 3.68L87.54 3.68L87.54 3.68Q87.29 3.68 87.07 3.50L87.07 3.50L87.07 3.50Q86.49 3.01 85.95 2.79L85.95 2.79L85.95 2.79Q85.40 2.58 84.53 2.58L84.53 2.58L84.53 2.58Q83.44 2.58 82.52 3.15L82.52 3.15L82.52 3.15Q81.61 3.72 81.07 4.71L81.07 4.71L81.07 4.71Q80.53 5.70 80.53 6.86L80.53 6.86L80.53 6.86Q80.53 8.04 81.07 9.02L81.07 9.02L81.07 9.02Q81.61 10.00 82.52 10.57L82.52 10.57L82.52 10.57Q83.44 11.14 84.53 11.14L84.53 11.14L84.53 11.14Q85.71 11.14 86.79 10.44L86.79 10.44L86.79 7.95L84.85 7.95L84.85 7.95Q84.53 7.95 84.33 7.77L84.33 7.77L84.33 7.77Q84.13 7.59 84.13 7.31L84.13 7.31L84.13 7.31Q84.13 7.03 84.33 6.85L84.33 6.85L84.33 6.85Q84.53 6.66 84.85 6.66L84.85 6.66L87.47 6.66ZM97.24 8.39L97.24 8.39Q97.24 8.65 97.06 8.83L97.06 8.83L97.06 8.83Q96.88 9.00 96.60 9.00L96.60 9.00L91.28 9.00L91.28 9.00Q91.43 9.98 92.17 10.58L92.17 10.58L92.17 10.58Q92.90 11.19 93.97 11.19L93.97 11.19L93.97 11.19Q94.39 11.19 94.84 11.03L94.84 11.03L94.84 11.03Q95.30 10.88 95.59 10.65L95.59 10.65L95.59 10.65Q95.79 10.50 96.05 10.50L96.05 10.50L96.05 10.50Q96.32 10.50 96.47 10.64L96.47 10.64L96.47 10.64Q96.73 10.85 96.73 11.12L96.73 11.12L96.73 11.12Q96.73 11.37 96.50 11.54L96.50 11.54L96.50 11.54Q96.03 11.91 95.32 12.15L95.32 12.15L95.32 12.15Q94.61 12.39 93.97 12.39L93.97 12.39L93.97 12.39Q92.82 12.39 91.91 11.89L91.91 11.89L91.91 11.89Q91 11.40 90.49 10.51L90.49 10.51L90.49 10.51Q89.98 9.63 89.98 8.51L89.98 8.51L89.98 8.51Q89.98 7.39 90.46 6.50L90.46 6.50L90.46 6.50Q90.94 5.61 91.80 5.12L91.80 5.12L91.80 5.12Q92.67 4.62 93.76 4.62L93.76 4.62L93.76 4.62Q94.84 4.62 95.62 5.10L95.62 5.10L95.62 5.10Q96.40 5.57 96.82 6.43L96.82 6.43L96.82 6.43Q97.24 7.28 97.24 8.39L97.24 8.39ZM93.76 5.82L93.76 5.82Q92.74 5.82 92.10 6.38L92.10 6.38L92.10 6.38Q91.46 6.94 91.29 7.88L91.29 7.88L95.96 7.88L95.96 7.88Q95.83 6.94 95.26 6.38L95.26 6.38L95.26 6.38Q94.68 5.82 93.76 5.82L93.76 5.82ZM101.75 4.62L101.75 4.62Q102.66 4.62 103.38 4.91L103.38 4.91L103.38 4.91Q104.10 5.21 104.52 5.73L104.52 5.73L104.52 5.73Q104.71 5.95 104.71 6.17L104.71 6.17L104.71 6.17Q104.71 6.41 104.47 6.61L104.47 6.61L104.47 6.61Q104.31 6.72 104.08 6.72L104.08 6.72L104.08 6.72Q103.71 6.72 103.42 6.45L103.42 6.45L103.42 6.45Q103.07 6.13 102.68 6.00L102.68 6.00L102.68 6.00Q102.28 5.87 101.72 5.87L101.72 5.87L101.72 5.87Q101.08 5.87 100.67 6.08L100.67 6.08L100.67 6.08Q100.25 6.30 100.25 6.69L100.25 6.69L100.25 6.69Q100.25 6.97 100.39 7.16L100.39 7.16L100.39 7.16Q100.53 7.35 100.93 7.51L100.93 7.51L100.93 7.51Q101.32 7.67 102.06 7.83L102.06 7.83L102.06 7.83Q103.59 8.13 104.22 8.68L104.22 8.68L104.22 8.68Q104.86 9.23 104.86 10.09L104.86 10.09L104.86 10.09Q104.86 10.74 104.51 11.26L104.51 11.26L104.51 11.26Q104.16 11.79 103.48 12.09L103.48 12.09L103.48 12.09Q102.80 12.39 101.85 12.39L101.85 12.39L101.85 12.39Q100.90 12.39 100.06 12.10L100.06 12.10L100.06 12.10Q99.22 11.80 98.74 11.33L98.74 11.33L98.74 11.33Q98.56 11.14 98.56 10.89L98.56 10.89L98.56 10.89Q98.56 10.56 98.84 10.35L98.84 10.35L98.84 10.35Q99.11 10.15 99.33 10.15L99.33 10.15L99.33 10.15Q99.61 10.15 99.86 10.40L99.86 10.40L99.86 10.40Q100.13 10.70 100.66 10.91L100.66 10.91L100.66 10.91Q101.19 11.13 101.79 11.13L101.79 11.13L101.79 11.13Q102.59 11.13 103.03 10.86L103.03 10.86L103.03 10.86Q103.47 10.60 103.47 10.15L103.47 10.15L103.47 10.15Q103.47 9.72 103.04 9.43L103.04 9.43L103.04 9.43Q102.61 9.14 101.57 8.95L101.57 8.95L101.57 8.95Q98.88 8.43 98.88 6.73L98.88 6.73L98.88 6.73Q98.88 6.05 99.29 5.57L99.29 5.57L99.29 5.57Q99.69 5.10 100.35 4.86L100.35 4.86L100.35 4.86Q101.01 4.62 101.75 4.62L101.75 4.62ZM109.93 10.93L109.93 10.93Q110.18 10.93 110.36 11.13L110.36 11.13L110.36 11.13Q110.53 11.33 110.53 11.63L110.53 11.63L110.53 11.63Q110.53 11.94 110.30 12.14L110.30 12.14L110.30 12.14Q110.07 12.33 109.70 12.33L109.70 12.33L109.45 12.33L109.45 12.33Q108.77 12.33 108.20 11.98L108.20 11.98L108.20 11.98Q107.63 11.62 107.31 11.00L107.31 11.00L107.31 11.00Q106.99 10.39 106.99 9.62L106.99 9.62L106.99 6.16L106.34 6.16L106.34 6.16Q106.05 6.16 105.87 5.99L105.87 5.99L105.87 5.99Q105.69 5.82 105.69 5.57L105.69 5.57L105.69 5.57Q105.69 5.29 105.87 5.12L105.87 5.12L105.87 5.12Q106.05 4.96 106.34 4.96L106.34 4.96L106.99 4.96L106.99 2.94L106.99 2.94Q106.99 2.63 107.18 2.44L107.18 2.44L107.18 2.44Q107.38 2.24 107.69 2.24L107.69 2.24L107.69 2.24Q108.00 2.24 108.19 2.44L108.19 2.44L108.19 2.44Q108.39 2.63 108.39 2.94L108.39 2.94L108.39 4.96L109.58 4.96L109.58 4.96Q109.87 4.96 110.05 5.12L110.05 5.12L110.05 5.12Q110.24 5.29 110.24 5.57L110.24 5.57L110.24 5.57Q110.24 5.82 110.05 5.99L110.05 5.99L110.05 5.99Q109.87 6.16 109.58 6.16L109.58 6.16L108.39 6.16L108.39 9.62L108.39 9.62Q108.39 10.18 108.70 10.56L108.70 10.56L108.70 10.56Q109.00 10.93 109.45 10.93L109.45 10.93L109.93 10.93ZM112.42 5.39L112.42 5.39Q112.42 5.07 112.62 4.87L112.62 4.87L112.62 4.87Q112.83 4.68 113.13 4.68L113.13 4.68L113.13 4.68Q113.46 4.68 113.65 4.87L113.65 4.87L113.65 4.87Q113.85 5.07 113.85 5.39L113.85 5.39L113.85 11.62L113.85 11.62Q113.85 11.93 113.65 12.13L113.65 12.13L113.65 12.13Q113.46 12.33 113.13 12.33L113.13 12.33L113.13 12.33Q112.83 12.33 112.62 12.13L112.62 12.13L112.62 12.13Q112.42 11.93 112.42 11.62L112.42 11.62L112.42 5.39ZM113.13 1.58L113.13 1.58Q113.51 1.58 113.79 1.85L113.79 1.85L113.79 1.85Q114.06 2.13 114.06 2.51L114.06 2.51L114.06 2.51Q114.06 2.88 113.79 3.16L113.79 3.16L113.79 3.16Q113.51 3.43 113.13 3.43L113.13 3.43L113.13 3.43Q112.76 3.43 112.48 3.16L112.48 3.16L112.48 3.16Q112.21 2.88 112.21 2.51L112.21 2.51L112.21 2.51Q112.21 2.13 112.48 1.85L112.48 1.85L112.48 1.85Q112.76 1.58 113.13 1.58L113.13 1.58ZM119.98 4.62L119.98 4.62Q121.09 4.62 121.96 5.12L121.96 5.12L121.96 5.12Q122.84 5.61 123.33 6.50L123.33 6.50L123.33 6.50Q123.83 7.38 123.83 8.51L123.83 8.51L123.83 8.51Q123.83 9.63 123.34 10.51L123.34 10.51L123.34 10.51Q122.85 11.40 121.98 11.89L121.98 11.89L121.98 11.89Q121.10 12.39 119.98 12.39L119.98 12.39L119.98 12.39Q118.86 12.39 117.98 11.89L117.98 11.89L117.98 11.89Q117.10 11.40 116.61 10.51L116.61 10.51L116.61 10.51Q116.12 9.63 116.12 8.51L116.12 8.51L116.12 8.51Q116.12 7.38 116.61 6.50L116.61 6.50L116.61 6.50Q117.10 5.61 117.98 5.12L117.98 5.12L117.98 5.12Q118.86 4.62 119.98 4.62L119.98 4.62ZM119.98 5.88L119.98 5.88Q119.27 5.88 118.70 6.22L118.70 6.22L118.70 6.22Q118.13 6.55 117.81 7.15L117.81 7.15L117.81 7.15Q117.49 7.76 117.49 8.51L117.49 8.51L117.49 8.51Q117.49 9.27 117.81 9.86L117.81 9.86L117.81 9.86Q118.13 10.46 118.70 10.79L118.70 10.79L118.70 10.79Q119.27 11.13 119.98 11.13L119.98 11.13L119.98 11.13Q120.69 11.13 121.26 10.79L121.26 10.79L121.26 10.79Q121.83 10.46 122.14 9.86L122.14 9.86L122.14 9.86Q122.46 9.27 122.46 8.51L122.46 8.51L122.46 8.51Q122.46 7.76 122.14 7.15L122.14 7.15L122.14 7.15Q121.83 6.55 121.26 6.22L121.26 6.22L121.26 6.22Q120.69 5.88 119.98 5.88L119.98 5.88ZM129.77 4.61L129.77 4.61Q130.73 4.61 131.50 5.03L131.50 5.03L131.50 5.03Q132.27 5.45 132.71 6.25L132.71 6.25L132.71 6.25Q133.14 7.06 133.14 8.19L133.14 8.19L133.14 11.63L133.14 11.63Q133.14 11.94 132.94 12.14L132.94 12.14L132.94 12.14Q132.73 12.35 132.43 12.35L132.43 12.35L132.43 12.35Q132.12 12.35 131.92 12.14L131.92 12.14L131.92 12.14Q131.71 11.94 131.71 11.63L131.71 11.63L131.71 8.19L131.71 8.19Q131.71 7.06 131.10 6.47L131.10 6.47L131.10 6.47Q130.49 5.89 129.49 5.89L129.49 5.89L129.49 5.89Q128.90 5.89 128.42 6.13L128.42 6.13L128.42 6.13Q127.93 6.37 127.66 6.78L127.66 6.78L127.66 6.78Q127.39 7.18 127.39 7.69L127.39 7.69L127.39 11.63L127.39 11.63Q127.39 11.94 127.19 12.14L127.19 12.14L127.19 12.14Q126.99 12.35 126.67 12.35L126.67 12.35L126.67 12.35Q126.36 12.35 126.16 12.14L126.16 12.14L126.16 12.14Q125.96 11.94 125.96 11.63L125.96 11.63L125.96 5.39L125.96 5.39Q125.96 5.07 126.16 4.87L126.16 4.87L126.16 4.87Q126.36 4.68 126.67 4.68L126.67 4.68L126.67 4.68Q126.99 4.68 127.19 4.87L127.19 4.87L127.19 4.87Q127.39 5.07 127.39 5.39L127.39 5.39L127.39 5.54L127.39 5.54Q127.83 5.10 128.45 4.85L128.45 4.85L128.45 4.85Q129.07 4.61 129.77 4.61L129.77 4.61ZM142.38 8.39L142.38 8.39Q142.38 8.65 142.20 8.83L142.20 8.83L142.20 8.83Q142.02 9.00 141.74 9.00L141.74 9.00L136.42 9.00L136.42 9.00Q136.57 9.98 137.31 10.58L137.31 10.58L137.31 10.58Q138.04 11.19 139.10 11.19L139.10 11.19L139.10 11.19Q139.52 11.19 139.98 11.03L139.98 11.03L139.98 11.03Q140.43 10.88 140.73 10.65L140.73 10.65L140.73 10.65Q140.92 10.50 141.19 10.50L141.19 10.50L141.19 10.50Q141.46 10.50 141.61 10.64L141.61 10.64L141.61 10.64Q141.86 10.85 141.86 11.12L141.86 11.12L141.86 11.12Q141.86 11.37 141.64 11.54L141.64 11.54L141.64 11.54Q141.16 11.91 140.46 12.15L140.46 12.15L140.46 12.15Q139.75 12.39 139.10 12.39L139.10 12.39L139.10 12.39Q137.96 12.39 137.05 11.89L137.05 11.89L137.05 11.89Q136.14 11.40 135.63 10.51L135.63 10.51L135.63 10.51Q135.11 9.63 135.11 8.51L135.11 8.51L135.11 8.51Q135.11 7.39 135.60 6.50L135.60 6.50L135.60 6.50Q136.08 5.61 136.94 5.12L136.94 5.12L136.94 5.12Q137.80 4.62 138.89 4.62L138.89 4.62L138.89 4.62Q139.97 4.62 140.76 5.10L140.76 5.10L140.76 5.10Q141.54 5.57 141.96 6.43L141.96 6.43L141.96 6.43Q142.38 7.28 142.38 8.39L142.38 8.39ZM138.89 5.82L138.89 5.82Q137.87 5.82 137.24 6.38L137.24 6.38L137.24 6.38Q136.60 6.94 136.43 7.88L136.43 7.88L141.09 7.88L141.09 7.88Q140.97 6.94 140.39 6.38L140.39 6.38L140.39 6.38Q139.82 5.82 138.89 5.82L138.89 5.82ZM146.89 4.62L146.89 4.62Q147.80 4.62 148.52 4.91L148.52 4.91L148.52 4.91Q149.24 5.21 149.66 5.73L149.66 5.73L149.66 5.73Q149.84 5.95 149.84 6.17L149.84 6.17L149.84 6.17Q149.84 6.41 149.60 6.61L149.60 6.61L149.60 6.61Q149.45 6.72 149.21 6.72L149.21 6.72L149.21 6.72Q148.85 6.72 148.55 6.45L148.55 6.45L148.55 6.45Q148.20 6.13 147.81 6.00L147.81 6.00L147.81 6.00Q147.42 5.87 146.86 5.87L146.86 5.87L146.86 5.87Q146.22 5.87 145.80 6.08L145.80 6.08L145.80 6.08Q145.39 6.30 145.39 6.69L145.39 6.69L145.39 6.69Q145.39 6.97 145.53 7.16L145.53 7.16L145.53 7.16Q145.67 7.35 146.06 7.51L146.06 7.51L146.06 7.51Q146.45 7.67 147.20 7.83L147.20 7.83L147.20 7.83Q148.72 8.13 149.36 8.68L149.36 8.68L149.36 8.68Q150.00 9.23 150.00 10.09L150.00 10.09L150.00 10.09Q150.00 10.74 149.65 11.26L149.65 11.26L149.65 11.26Q149.30 11.79 148.62 12.09L148.62 12.09L148.62 12.09Q147.94 12.39 146.99 12.39L146.99 12.39L146.99 12.39Q146.03 12.39 145.19 12.10L145.19 12.10L145.19 12.10Q144.35 11.80 143.88 11.33L143.88 11.33L143.88 11.33Q143.70 11.14 143.70 10.89L143.70 10.89L143.70 10.89Q143.70 10.56 143.98 10.35L143.98 10.35L143.98 10.35Q144.24 10.15 144.47 10.15L144.47 10.15L144.47 10.15Q144.75 10.15 145.00 10.40L145.00 10.40L145.00 10.40Q145.26 10.70 145.80 10.91L145.80 10.91L145.80 10.91Q146.33 11.13 146.93 11.13L146.93 11.13L146.93 11.13Q147.73 11.13 148.17 10.86L148.17 10.86L148.17 10.86Q148.61 10.60 148.61 10.15L148.61 10.15L148.61 10.15Q148.61 9.72 148.18 9.43L148.18 9.43L148.18 9.43Q147.74 9.14 146.71 8.95L146.71 8.95L146.71 8.95Q144.02 8.43 144.02 6.73L144.02 6.73L144.02 6.73Q144.02 6.05 144.42 5.57L144.42 5.57L144.42 5.57Q144.83 5.10 145.49 4.86L145.49 4.86L145.49 4.86Q146.15 4.62 146.89 4.62L146.89 4.62Z"></path></g><!----><!----></svg>